<?xml version="1.0" encoding="utf-8"?>
<!-- Generator: Adobe Illustrator 24.0.1, SVG Export Plug-In . SVG Version: 6.00 Build 0)  -->
<svg version="1.1" id="Layer_1" xmlns="http://www.w3.org/2000/svg" xmlns:xlink="http://www.w3.org/1999/xlink" x="0px" y="0px"
	 viewBox="0 0 42 42" style="enable-background:new 0 0 42 42;" xml:space="preserve">
<style type="text/css">
	.st0{fill:#7C7C7C;}
</style>
<title>avtar</title>
<desc>Created with Sketch.</desc>
<g id="_x31_3-Side_x5F_menu">
	<g id="_x32_-Left_x5F_nav_x5F_without_x5F_login_x5F_full_x5F_view" transform="translate(-17.000000, -42.000000)">
		<g id="user_icon_white" transform="translate(17.000000, 42.000000)">
			<g id="round-account-button-with-user-inside">
				<path id="Shape" class="st0" d="M21,0C9.4,0,0,9.4,0,21s9.4,21,21,21s21-9.5,21-21S32.5,0,21,0z M21,6.3c3.6,0,6.3,2.7,6.3,6.3
					s-2.7,6.3-6.3,6.3s-6.3-2.7-6.3-6.3S17.4,6.3,21,6.3z M21,36.1c-5.3,0-9.9-2.7-12.6-6.7c0-4.2,8.4-6.5,12.6-6.5
					s12.6,2.3,12.6,6.5C30.9,33.4,26.3,36.1,21,36.1z"/>
			</g>
		</g>
	</g>
</g>
</svg>
