<?xml version="1.0" encoding="UTF-8"?>
<svg width="24px" height="33px" viewBox="0 0 24 33" version="1.1" xmlns="http://www.w3.org/2000/svg" xmlns:xlink="http://www.w3.org/1999/xlink">
    <!-- Generator: Sketch 51.2 (57519) - http://www.bohemiancoding.com/sketch -->
    <title>great_offers</title>
    <desc>Created with Sketch.</desc>
    <defs>
        <polygon id="path-1" points="3.46666667e-05 0.0512442667 23.4725573 0.0512442667 23.4725573 31.1306667 3.46666667e-05 31.1306667"></polygon>
    </defs>
    <g id="great_offers" stroke="none" stroke-width="1" fill="none" fill-rule="evenodd">
        <g id="Page-1-Copy">
            <g id="Group-3" transform="translate(0.000000, 0.018096)">
                <mask id="mask-2" fill="white">
                    <use xlink:href="#path-1"></use>
                </mask>
                <g id="Clip-2"></g>
                <path d="M12.4970213,26.9287963 L15.4310693,29.5730309 L18.3651173,26.9287963 C18.7950533,26.5329029 19.456632,26.5329029 19.8864987,26.9287963 L22.0236293,28.8848976 L22.0236293,2.94910027 C22.0236293,2.14885493 21.375016,1.50017227 20.5747707,1.50017227 L2.89782133,1.50017227 C2.097576,1.50017227 1.44889333,2.14885493 1.44889333,2.94910027 L1.44889333,28.8848283 L3.58609333,26.9287963 C4.01596,26.5329029 4.67753867,26.5329029 5.10747467,26.9287963 L8.04152267,29.5730309 L10.9755707,26.9287963 C11.1799653,26.7339003 11.4541093,26.6294149 11.736296,26.6389829 C12.0184827,26.6294149 12.2926267,26.7339003 12.4970213,26.9287963 Z M7.31705867,30.8408603 L4.34674933,28.1966256 L1.91980533,30.4424016 C1.582984,30.7409509 1.10694133,30.8249829 0.688237333,30.6597616 C0.272584,30.4749883 0.003432,30.0641189 3.46666667e-05,29.6092923 L3.46666667e-05,2.94910027 C3.46666667e-05,1.3486096 1.2974,0.0512442667 2.89782133,0.0512442667 L20.5747707,0.0512442667 C22.175192,0.0512442667 23.4725573,1.3486096 23.4725573,2.94910027 L23.4725573,29.6092923 C23.4692293,30.0641189 23.200008,30.4749883 22.7843547,30.6597616 C22.3656507,30.8249829 21.889608,30.7409509 21.5527867,30.4424016 L19.1258427,28.1966256 L16.1555333,30.8408603 C15.7254587,31.1996603 15.1004187,31.1996603 14.670344,30.8408603 L11.736296,28.1966256 L8.802248,30.8408603 C8.59202933,31.0262576 8.321768,31.1292176 8.04152267,31.1306736 C7.77382667,31.1206896 7.51777867,31.0182843 7.31705867,30.8408603 Z" id="Fill-1" fill="#0073AA" mask="url(#mask-2)"></path>
            </g>
            <path d="M11.8811888,18.0359781 L5.17991413,18.0359781 C4.77979147,18.0359781 4.4553808,17.7116368 4.4553808,17.3115141 C4.4553808,16.9113915 4.77979147,16.5871195 5.17991413,16.5871195 L11.8811888,16.5871195 C12.2813115,16.5871195 12.6056528,16.9113915 12.6056528,17.3115141 C12.6056528,17.7116368 12.2813115,18.0359781 11.8811888,18.0359781" id="Fill-4" fill="#0073AA"></path>
            <path d="M18.2926917,21.2236197 L5.1798864,21.2236197 C4.77983307,21.2236197 4.4554224,20.8992784 4.4554224,20.4991557 C4.4554224,20.0990331 4.77983307,19.7747611 5.1798864,19.7747611 L18.2926917,19.7747611 C18.6928144,19.7747611 19.0171557,20.0990331 19.0171557,20.4991557 C19.0171557,20.8992784 18.6928144,21.2236197 18.2926917,21.2236197" id="Fill-6" fill="#0073AA"></path>
            <path d="M18.2926917,24.4474811 L5.1798864,24.4474811 C4.77983307,24.4474811 4.4554224,24.1231397 4.4554224,23.7230171 C4.4554224,23.3228944 4.77983307,22.9986224 5.1798864,22.9986224 L18.2926917,22.9986224 C18.6928144,22.9986224 19.0171557,23.3228944 19.0171557,23.7230171 C19.0171557,24.1231397 18.6928144,24.4474811 18.2926917,24.4474811" id="Fill-8" fill="#0073AA"></path>
            <path d="M9.0195664,5.43034613 C8.4793904,5.43034613 8.0415504,5.86818613 8.0415504,6.40836213 C8.0415504,6.9484688 8.4793904,7.38637813 9.0195664,7.38637813 C9.55967307,7.38637813 9.9975824,6.9484688 9.9975824,6.40836213 C9.9975824,5.86818613 9.55967307,5.43034613 9.0195664,5.43034613 M9.0195664,8.83530613 C7.6792144,8.83530613 6.5926224,7.74871413 6.5926224,6.40836213 C6.5926224,5.06801013 7.6792144,3.98141813 9.0195664,3.98141813 C10.3599184,3.98141813 11.4465104,5.06801013 11.4465104,6.40836213 C11.4465104,7.74871413 10.3599184,8.83530613 9.0195664,8.83530613" id="Fill-10" fill="#DC062B"></path>
            <path d="M14.4530256,10.8638053 C13.9129189,10.8638053 13.4750096,11.3016453 13.4750096,11.8418213 C13.4750096,12.3819973 13.9129189,12.8198373 14.4530256,12.8198373 C14.9932016,12.8198373 15.4310416,12.3819973 15.4310416,11.8418213 C15.4310416,11.3016453 14.9932016,10.8638053 14.4530256,10.8638053 M14.4530256,14.2687653 C13.1126736,14.2687653 12.0260816,13.1821733 12.0260816,11.8418213 C12.0260816,10.5014693 13.1126736,9.41487733 14.4530256,9.41487733 C15.7933776,9.41487733 16.8799696,10.5014693 16.8799696,11.8418213 C16.8799696,13.1821733 15.7933776,14.2687653 14.4530256,14.2687653" id="Fill-12" fill="#DC062B"></path>
            <path d="M7.96906933,13.6167547 C7.77798667,13.6140507 7.59570933,13.535912 7.46196533,13.399464 C7.18137333,13.1054907 7.18137333,12.6428987 7.46196533,12.3489253 L15.2137093,4.63344267 C15.533752,4.39334133 15.9878853,4.45823733 16.2279173,4.77828 C16.4211493,5.03592267 16.4211493,5.39007733 16.2279173,5.64772 L8.47617333,13.399464 C8.34769867,13.5433307 8.16195467,13.6229253 7.96906933,13.6167547" id="Fill-14" fill="#DC062B"></path>
        </g>
    </g>
</svg>