<?xml version="1.0" encoding="UTF-8"?>
<svg xmlns="http://www.w3.org/2000/svg" xmlns:xlink="http://www.w3.org/1999/xlink" width="15pt" height="14pt" viewBox="0 0 15 14" version="1.1">
<g id="surface1">
<path style=" stroke:none;fill-rule:nonzero;fill:rgb(100%,100%,100%);fill-opacity:1;" d="M 3.410156 0 L 11.589844 0 C 13.472656 0 15 1.425781 15 3.183594 L 15 10.816406 C 15 12.574219 13.472656 14 11.589844 14 L 3.410156 14 C 1.527344 14 0 12.574219 0 10.816406 L 0 3.183594 C 0 1.425781 1.527344 0 3.410156 0 Z M 3.410156 0 "/>
<path style="fill:none;stroke-width:2;stroke-linecap:butt;stroke-linejoin:miter;stroke:rgb(100%,72.156863%,12.941176%);stroke-opacity:1;stroke-miterlimit:4;" d="M 5.001563 1.000558 L 16.998438 1.000558 C 19.209896 1.000558 20.997396 2.792969 20.997396 5.00279 L 20.997396 16.99721 C 20.997396 19.207031 19.209896 20.999442 16.998438 20.999442 L 5.001563 20.999442 C 2.790104 20.999442 1.002604 19.207031 1.002604 16.99721 L 1.002604 5.00279 C 1.002604 2.792969 2.790104 1.000558 5.001563 1.000558 Z M 5.001563 1.000558 " transform="matrix(0.681818,0,0,0.636364,0,0)"/>
<path style=" stroke:none;fill-rule:nonzero;fill:rgb(100%,72.156863%,12.941176%);fill-opacity:1;" d="M 10.910156 7 C 10.910156 8.757812 9.382812 10.183594 7.5 10.183594 C 5.617188 10.183594 4.089844 8.757812 4.089844 7 C 4.089844 5.242188 5.617188 3.816406 7.5 3.816406 C 9.382812 3.816406 10.910156 5.242188 10.910156 7 Z M 10.910156 7 "/>
<path style="fill:none;stroke-width:2;stroke-linecap:butt;stroke-linejoin:miter;stroke:rgb(100%,72.156863%,12.941176%);stroke-opacity:1;stroke-miterlimit:4;" d="M 8.998958 5 C 8.998958 7.209821 7.211458 9.002232 5 9.002232 C 2.788542 9.002232 1.001042 7.209821 1.001042 5 C 1.001042 2.790179 2.788542 0.997768 5 0.997768 C 7.211458 0.997768 8.998958 2.790179 8.998958 5 Z M 8.998958 5 " transform="matrix(0.681818,0,0,0.636364,4.090909,3.818182)"/>
</g>
</svg>