<?xml version="1.0" encoding="utf-8"?>
<!-- Generator: Adobe Illustrator 24.0.1, SVG Export Plug-In . SVG Version: 6.00 Build 0)  -->
<svg version="1.1" id="Layer_1" xmlns="http://www.w3.org/2000/svg" xmlns:xlink="http://www.w3.org/1999/xlink" x="0px" y="0px"
	 viewBox="0 0 407.5 281.9" style="enable-background:new 0 0 407.5 281.9;" xml:space="preserve">
<style type="text/css">
	.st0{fill-rule:evenodd;clip-rule:evenodd;fill:#1C2A39;}
	.st1{clip-path:url(#SVGID_2_);fill:url(#SVGID_3_);}
	.st2{fill:#FFFFFF;}
	.st3{clip-path:url(#SVGID_5_);fill:url(#SVGID_6_);}
	.st4{clip-path:url(#SVGID_8_);fill:url(#SVGID_9_);}
	.st5{clip-path:url(#SVGID_11_);fill:url(#SVGID_12_);}
</style>
<rect x="938.1" y="-840" class="st0" width="691" height="691"/>
<rect x="-290.9" y="-840" class="st0" width="1019" height="691"/>
<g>
	<g>
		<defs>
			<path id="SVGID_1_" d="M129.7-596.2v59.2c0,32.5,26.7,59.2,59.2,59.2h13.4c-25.2-21-33.3-48.4-34.1-74.6
				c11.2,41.3,48.3,74.6,83.1,74.6H291v-59.2c0-32.5-26.7-59.2-59.2-59.2h-13.4c25.2,21,33.3,48.4,34.1,74.6
				c-11.2-41.3-48.3-74.6-83.1-74.6H129.7z M111.2-614.7h120.6c42.7,0,77.7,35,77.7,77.7v77.7H188.9c-42.7,0-77.7-34.9-77.7-77.7
				V-614.7z"/>
		</defs>
		<clipPath id="SVGID_2_">
			<use xlink:href="#SVGID_1_"  style="overflow:visible;"/>
		</clipPath>
		<linearGradient id="SVGID_3_" gradientUnits="userSpaceOnUse" x1="298.0424" y1="-462.2266" x2="124.6685" y2="-610.1423">
			<stop  offset="0" style="stop-color:#12D3B4"/>
			<stop  offset="1" style="stop-color:#90D124"/>
		</linearGradient>
		<rect x="111.2" y="-614.7" class="st1" width="198.3" height="155.3"/>
	</g>
	<g>
		<path class="st2" d="M43.6-427H53l22.2,34.1V-427h9.9v51.9h-9.5l-22.2-34v34h-9.9V-427z"/>
	</g>
	<g>
		<path class="st2" d="M97.6-413.5h9.7v18.5c0,3.6,0.2,6.1,0.7,7.5c0.5,1.4,1.3,2.5,2.4,3.3c1.1,0.8,2.4,1.2,4,1.2
			c1.6,0,3-0.4,4.1-1.1c1.1-0.8,1.9-1.9,2.5-3.4c0.4-1.1,0.6-3.5,0.6-7.1v-18.8h9.6v16.3c0,6.7-0.5,11.3-1.6,13.7
			c-1.3,3-3.2,5.3-5.7,6.9c-2.5,1.6-5.7,2.4-9.6,2.4c-4.2,0-7.6-0.9-10.2-2.8c-2.6-1.9-4.4-4.5-5.5-7.9c-0.8-2.3-1.1-6.6-1.1-12.7
			V-413.5z"/>
	</g>
	<g>
		<path class="st2" d="M144-427.6h9.6v14.1h5.7v8.3h-5.7v30.1H144v-30.1H139v-8.3h4.9V-427.6z"/>
	</g>
	<g>
		<path class="st2" d="M164-413.5h8.2v4.8c0.9-1.9,2.1-3.3,3.6-4.3c1.5-1,3.1-1.5,4.9-1.5c1.2,0,2.5,0.3,3.9,1l-3,8.3
			c-1.1-0.6-2.1-0.8-2.8-0.8c-1.5,0-2.7,0.9-3.8,2.7c-1,1.8-1.5,5.4-1.5,10.8l0,1.9v15.5H164V-413.5z"/>
	</g>
	<g>
		<path class="st2" d="M194.9-429.3c1.7,0,3.1,0.6,4.3,1.8c1.2,1.2,1.8,2.7,1.8,4.4c0,1.7-0.6,3.2-1.8,4.4c-1.2,1.2-2.6,1.8-4.3,1.8
			c-1.7,0-3.2-0.6-4.4-1.9c-1.2-1.2-1.8-2.7-1.8-4.5c0-1.7,0.6-3.1,1.8-4.3C191.7-428.7,193.2-429.3,194.9-429.3z M190.1-413.5h9.6
			v38.4h-9.6V-413.5z"/>
	</g>
	<g>
		<path class="st2" d="M238.5-428.3h9.6v53.2h-9.6v-4.1c-1.9,1.8-3.8,3.1-5.7,3.9c-1.9,0.8-3.9,1.2-6.1,1.2c-5,0-9.2-1.9-12.9-5.8
			c-3.6-3.8-5.4-8.6-5.4-14.3c0-5.9,1.7-10.8,5.2-14.6c3.5-3.8,7.7-5.7,12.7-5.7c2.3,0,4.5,0.4,6.5,1.3c2,0.9,3.9,2.2,5.6,3.9
			V-428.3z M228.4-405.6c-3,0-5.4,1.1-7.4,3.2c-2,2.1-3,4.8-3,8.1c0,3.3,1,6,3,8.2c2,2.1,4.5,3.2,7.4,3.2c3,0,5.5-1.1,7.5-3.2
			c2-2.1,3-4.9,3-8.3c0-3.3-1-6-3-8.1C234-404.5,231.4-405.6,228.4-405.6z"/>
	</g>
	<g>
		<path class="st2" d="M277.7-414.5c3.6,0,7,0.9,10.2,2.7c3.2,1.8,5.7,4.3,7.5,7.4c1.8,3.1,2.7,6.5,2.7,10c0,3.6-0.9,7-2.7,10.2
			c-1.8,3.1-4.2,5.6-7.3,7.4c-3.1,1.8-6.5,2.7-10.3,2.7c-5.5,0-10.2-2-14.1-5.9c-3.9-3.9-5.8-8.7-5.8-14.3c0-6,2.2-11,6.6-15
			C268.2-412.7,272.7-414.5,277.7-414.5z M277.8-405.4c-3,0-5.5,1-7.5,3.1c-2,2.1-3,4.7-3,8c0,3.3,1,6,2.9,8.1
			c2,2.1,4.5,3.1,7.5,3.1c3,0,5.5-1,7.5-3.1c2-2.1,3-4.8,3-8.1c0-3.3-1-6-2.9-8C283.4-404.4,280.9-405.4,277.8-405.4z"/>
	</g>
	<g>
		<path class="st2" d="M345.2-405.7l-8,4.4c-1.5-1.6-3-2.7-4.5-3.3s-3.2-0.9-5.2-0.9c-3.6,0-6.5,1.1-8.7,3.2
			c-2.2,2.1-3.3,4.9-3.3,8.3c0,3.3,1.1,5.9,3.2,8c2.1,2.1,5,3.1,8.4,3.1c4.3,0,7.7-1.5,10.1-4.4l7.6,5.2c-4.1,5.3-9.9,8-17.4,8
			c-6.7,0-12-2-15.8-6c-3.8-4-5.7-8.7-5.7-14c0-3.7,0.9-7.1,2.8-10.3c1.9-3.1,4.4-5.6,7.8-7.4c3.3-1.8,7-2.7,11.2-2.7
			c3.8,0,7.2,0.8,10.3,2.3C340.8-410.7,343.3-408.5,345.2-405.7z"/>
	</g>
	<g>
		<path class="st2" d="M355.8-428.3h9.6v30.6l14.2-15.8h12.1l-16.5,18.4l18.5,20h-11.9l-16.3-17.7v17.7h-9.6V-428.3z"/>
	</g>
</g>
<g>
	<g>
		<defs>
			<path id="SVGID_4_" d="M129.7,36.4v59.2c0,32.5,26.7,59.2,59.2,59.2h13.4c-25.2-21-33.3-48.4-34.1-74.6
				c11.2,41.3,48.3,74.6,83.1,74.6H291V95.6c0-32.5-26.7-59.2-59.2-59.2h-13.4c25.2,21,33.3,48.4,34.1,74.6
				c-11.2-41.3-48.3-74.6-83.1-74.6H129.7z M111.2,17.9h120.6c42.7,0,77.7,35,77.7,77.7v77.7H188.9c-42.7,0-77.7-34.9-77.7-77.7
				V17.9z"/>
		</defs>
		<clipPath id="SVGID_5_">
			<use xlink:href="#SVGID_4_"  style="overflow:visible;"/>
		</clipPath>
		<linearGradient id="SVGID_6_" gradientUnits="userSpaceOnUse" x1="298.0424" y1="170.4543" x2="124.6685" y2="22.5385">
			<stop  offset="0" style="stop-color:#12D3B4"/>
			<stop  offset="1" style="stop-color:#90D124"/>
		</linearGradient>
		<rect x="111.2" y="17.9" class="st3" width="198.3" height="155.3"/>
	</g>
	<g>
		<path class="st2" d="M43.6,205.7H53l22.2,34.1v-34.1h9.9v51.9h-9.5l-22.2-34v34h-9.9V205.7z"/>
	</g>
	<g>
		<path class="st2" d="M97.6,219.2h9.7v18.5c0,3.6,0.2,6.1,0.7,7.5c0.5,1.4,1.3,2.5,2.4,3.3c1.1,0.8,2.4,1.2,4,1.2
			c1.6,0,3-0.4,4.1-1.1c1.1-0.8,1.9-1.9,2.5-3.4c0.4-1.1,0.6-3.5,0.6-7.1v-18.8h9.6v16.3c0,6.7-0.5,11.3-1.6,13.7
			c-1.3,3-3.2,5.3-5.7,6.9c-2.5,1.6-5.7,2.4-9.6,2.4c-4.2,0-7.6-0.9-10.2-2.8c-2.6-1.9-4.4-4.5-5.5-7.9c-0.8-2.3-1.1-6.6-1.1-12.7
			V219.2z"/>
	</g>
	<g>
		<path class="st2" d="M144,205.1h9.6v14.1h5.7v8.3h-5.7v30.1H144v-30.1H139v-8.3h4.9V205.1z"/>
	</g>
	<g>
		<path class="st2" d="M164,219.2h8.2v4.8c0.9-1.9,2.1-3.3,3.6-4.3c1.5-1,3.1-1.5,4.9-1.5c1.2,0,2.5,0.3,3.9,1l-3,8.3
			c-1.1-0.6-2.1-0.8-2.8-0.8c-1.5,0-2.7,0.9-3.8,2.7c-1,1.8-1.5,5.4-1.5,10.8l0,1.9v15.5H164V219.2z"/>
	</g>
	<g>
		<path class="st2" d="M194.9,203.4c1.7,0,3.1,0.6,4.3,1.8c1.2,1.2,1.8,2.7,1.8,4.4c0,1.7-0.6,3.2-1.8,4.4c-1.2,1.2-2.6,1.8-4.3,1.8
			c-1.7,0-3.2-0.6-4.4-1.9c-1.2-1.2-1.8-2.7-1.8-4.5c0-1.7,0.6-3.1,1.8-4.3C191.7,204,193.2,203.4,194.9,203.4z M190.1,219.2h9.6
			v38.4h-9.6V219.2z"/>
	</g>
	<g>
		<path class="st2" d="M238.5,204.4h9.6v53.2h-9.6v-4.1c-1.9,1.8-3.8,3.1-5.7,3.9c-1.9,0.8-3.9,1.2-6.1,1.2c-5,0-9.2-1.9-12.9-5.8
			c-3.6-3.8-5.4-8.6-5.4-14.3c0-5.9,1.7-10.8,5.2-14.6c3.5-3.8,7.7-5.7,12.7-5.7c2.3,0,4.5,0.4,6.5,1.3c2,0.9,3.9,2.2,5.6,3.9V204.4
			z M228.4,227.1c-3,0-5.4,1.1-7.4,3.2c-2,2.1-3,4.8-3,8.1c0,3.3,1,6,3,8.2c2,2.1,4.5,3.2,7.4,3.2c3,0,5.5-1.1,7.5-3.2
			c2-2.1,3-4.9,3-8.3c0-3.3-1-6-3-8.1C234,228.1,231.4,227.1,228.4,227.1z"/>
	</g>
	<g>
		<path class="st2" d="M277.7,218.2c3.6,0,7,0.9,10.2,2.7c3.2,1.8,5.7,4.3,7.5,7.4c1.8,3.1,2.7,6.5,2.7,10c0,3.6-0.9,7-2.7,10.2
			c-1.8,3.1-4.2,5.6-7.3,7.4c-3.1,1.8-6.5,2.7-10.3,2.7c-5.5,0-10.2-2-14.1-5.9c-3.9-3.9-5.8-8.7-5.8-14.3c0-6,2.2-11,6.6-15
			C268.2,220,272.7,218.2,277.7,218.2z M277.8,227.3c-3,0-5.5,1-7.5,3.1c-2,2.1-3,4.7-3,8c0,3.3,1,6,2.9,8.1c2,2.1,4.5,3.1,7.5,3.1
			c3,0,5.5-1,7.5-3.1c2-2.1,3-4.8,3-8.1c0-3.3-1-6-2.9-8C283.4,228.3,280.9,227.3,277.8,227.3z"/>
	</g>
	<g>
		<path class="st2" d="M345.2,227l-8,4.4c-1.5-1.6-3-2.7-4.5-3.3c-1.5-0.6-3.2-0.9-5.2-0.9c-3.6,0-6.5,1.1-8.7,3.2
			c-2.2,2.1-3.3,4.9-3.3,8.3c0,3.3,1.1,5.9,3.2,8c2.1,2.1,5,3.1,8.4,3.1c4.3,0,7.7-1.5,10.1-4.4l7.6,5.2c-4.1,5.3-9.9,8-17.4,8
			c-6.7,0-12-2-15.8-6c-3.8-4-5.7-8.7-5.7-14c0-3.7,0.9-7.1,2.8-10.3c1.9-3.1,4.4-5.6,7.8-7.4c3.3-1.8,7-2.7,11.2-2.7
			c3.8,0,7.2,0.8,10.3,2.3C340.8,222,343.3,224.2,345.2,227z"/>
	</g>
	<g>
		<path class="st2" d="M355.8,204.4h9.6V235l14.2-15.8h12.1l-16.5,18.4l18.5,20h-11.9l-16.3-17.7v17.7h-9.6V204.4z"/>
	</g>
</g>
<g>
	<g>
		<defs>
			<path id="SVGID_7_" d="M1197.7-606.8v59.2c0,32.5,26.7,59.2,59.2,59.2h13.4c-25.2-21-33.3-48.4-34.1-74.6
				c11.2,41.3,48.3,74.6,83.1,74.6h39.7v-59.2c0-32.5-26.7-59.2-59.2-59.2h-13.4c25.2,21,33.3,48.4,34.1,74.6
				c-11.2-41.3-48.3-74.6-83.1-74.6H1197.7z M1179.2-625.3h120.6c42.7,0,77.7,35,77.7,77.7v77.7h-120.6c-42.7,0-77.7-34.9-77.7-77.7
				V-625.3z"/>
		</defs>
		<clipPath id="SVGID_8_">
			<use xlink:href="#SVGID_7_"  style="overflow:visible;"/>
		</clipPath>
		<linearGradient id="SVGID_9_" gradientUnits="userSpaceOnUse" x1="1366.0583" y1="-472.825" x2="1192.6844" y2="-620.7407">
			<stop  offset="0" style="stop-color:#12D3B4"/>
			<stop  offset="1" style="stop-color:#90D124"/>
		</linearGradient>
		<rect x="1179.2" y="-625.3" class="st4" width="198.3" height="155.3"/>
	</g>
	<g>
		<path class="st2" d="M1111.6-437.6h9.5l22.2,34.1v-34.1h9.9v51.9h-9.5l-22.2-34v34h-9.9V-437.6z"/>
	</g>
	<g>
		<path class="st2" d="M1165.7-424.1h9.7v18.5c0,3.6,0.2,6.1,0.7,7.5c0.5,1.4,1.3,2.5,2.4,3.3c1.1,0.8,2.4,1.2,4,1.2s3-0.4,4.1-1.1
			c1.1-0.8,1.9-1.9,2.5-3.4c0.4-1.1,0.6-3.5,0.6-7.1v-18.8h9.6v16.2c0,6.7-0.5,11.3-1.6,13.7c-1.3,3-3.2,5.3-5.7,6.9
			s-5.7,2.4-9.6,2.4c-4.2,0-7.6-0.9-10.2-2.8c-2.6-1.9-4.4-4.5-5.5-7.9c-0.8-2.3-1.1-6.6-1.1-12.7V-424.1z"/>
	</g>
	<g>
		<path class="st2" d="M1212-438.2h9.6v14.1h5.7v8.3h-5.7v30.1h-9.6v-30.1h-4.9v-8.3h4.9V-438.2z"/>
	</g>
	<g>
		<path class="st2" d="M1232-424.1h8.2v4.8c0.9-1.9,2.1-3.3,3.6-4.3c1.5-1,3.1-1.5,4.9-1.5c1.2,0,2.5,0.3,3.9,1l-3,8.3
			c-1.1-0.6-2.1-0.8-2.8-0.8c-1.5,0-2.7,0.9-3.8,2.7c-1,1.8-1.5,5.4-1.5,10.8l0,1.9v15.5h-9.6V-424.1z"/>
	</g>
	<g>
		<path class="st2" d="M1262.9-439.9c1.7,0,3.1,0.6,4.3,1.8c1.2,1.2,1.8,2.7,1.8,4.4c0,1.7-0.6,3.2-1.8,4.4
			c-1.2,1.2-2.6,1.8-4.3,1.8c-1.7,0-3.2-0.6-4.4-1.9c-1.2-1.2-1.8-2.7-1.8-4.5c0-1.7,0.6-3.1,1.8-4.3
			C1259.8-439.3,1261.2-439.9,1262.9-439.9z M1258.1-424.1h9.6v38.4h-9.6V-424.1z"/>
	</g>
	<g>
		<path class="st2" d="M1306.5-438.9h9.6v53.2h-9.6v-4.1c-1.9,1.8-3.8,3.1-5.7,3.9c-1.9,0.8-3.9,1.2-6.1,1.2c-5,0-9.2-1.9-12.9-5.8
			c-3.6-3.8-5.4-8.6-5.4-14.3c0-5.9,1.7-10.8,5.2-14.6c3.5-3.8,7.7-5.7,12.7-5.7c2.3,0,4.5,0.4,6.5,1.3c2,0.9,3.9,2.2,5.6,3.9
			V-438.9z M1296.4-416.2c-3,0-5.4,1.1-7.4,3.2c-2,2.1-3,4.8-3,8.1c0,3.3,1,6,3,8.2c2,2.1,4.5,3.2,7.4,3.2c3,0,5.5-1.1,7.5-3.2
			c2-2.1,3-4.9,3-8.3c0-3.3-1-6-3-8.1C1302-415.1,1299.5-416.2,1296.4-416.2z"/>
	</g>
	<g>
		<path class="st2" d="M1345.7-425.1c3.6,0,7,0.9,10.2,2.7c3.2,1.8,5.7,4.3,7.5,7.4c1.8,3.1,2.7,6.5,2.7,10c0,3.6-0.9,7-2.7,10.2
			c-1.8,3.1-4.2,5.6-7.3,7.4c-3.1,1.8-6.5,2.7-10.3,2.7c-5.5,0-10.2-2-14.1-5.9c-3.9-3.9-5.8-8.7-5.8-14.3c0-6,2.2-11,6.6-15
			C1336.3-423.3,1340.7-425.1,1345.7-425.1z M1345.9-416c-3,0-5.5,1-7.5,3.1s-3,4.7-3,8c0,3.3,1,6,2.9,8.1c2,2.1,4.5,3.1,7.5,3.1
			c3,0,5.5-1,7.5-3.1c2-2.1,3-4.8,3-8.1s-1-6-2.9-8C1351.4-415,1348.9-416,1345.9-416z"/>
	</g>
	<g>
		<path class="st2" d="M1413.2-416.3l-8,4.4c-1.5-1.6-3-2.7-4.5-3.3s-3.2-0.9-5.2-0.9c-3.6,0-6.5,1.1-8.7,3.2
			c-2.2,2.1-3.3,4.9-3.3,8.3c0,3.3,1.1,5.9,3.2,8c2.1,2.1,5,3.1,8.4,3.1c4.3,0,7.7-1.5,10.1-4.4l7.6,5.2c-4.1,5.3-9.9,8-17.4,8
			c-6.7,0-12-2-15.8-6c-3.8-4-5.7-8.7-5.7-14c0-3.7,0.9-7.1,2.8-10.3c1.9-3.1,4.4-5.6,7.8-7.4c3.3-1.8,7-2.7,11.2-2.7
			c3.8,0,7.2,0.8,10.3,2.3S1411.3-419.1,1413.2-416.3z"/>
	</g>
	<g>
		<path class="st2" d="M1423.8-438.9h9.6v30.6l14.2-15.8h12.1l-16.5,18.4l18.5,20h-11.9l-16.3-17.7v17.7h-9.6V-438.9z"/>
	</g>
</g>
<rect x="1706.1" y="-840" class="st0" width="691" height="691"/>
<g>
	<defs>
		<path id="SVGID_10_" d="M1970.9-553.6v59.2c0,32.5,26.7,59.2,59.2,59.2h13.4c-25.2-21-33.3-48.4-34.1-74.6
			c11.2,41.3,48.3,74.6,83.1,74.6h39.7v-59.2c0-32.5-26.7-59.2-59.2-59.2h-13.4c25.2,21,33.3,48.4,34.1,74.6
			c-11.2-41.3-48.3-74.6-83.1-74.6H1970.9z M1952.4-572.1h120.6c42.7,0,77.7,35,77.7,77.7v77.7h-120.6c-42.7,0-77.7-34.9-77.7-77.7
			V-572.1z"/>
	</defs>
	<clipPath id="SVGID_11_">
		<use xlink:href="#SVGID_10_"  style="overflow:visible;"/>
	</clipPath>
	<linearGradient id="SVGID_12_" gradientUnits="userSpaceOnUse" x1="2139.302" y1="-419.6208" x2="1965.9281" y2="-567.5366">
		<stop  offset="0" style="stop-color:#12D3B4"/>
		<stop  offset="1" style="stop-color:#90D124"/>
	</linearGradient>
	<rect x="1952.4" y="-572.1" class="st5" width="198.3" height="155.3"/>
</g>
</svg>
