<?xml version="1.0" encoding="UTF-8"?>
<svg width="37px" height="32px" viewBox="0 0 37 32" version="1.1" xmlns="http://www.w3.org/2000/svg" xmlns:xlink="http://www.w3.org/1999/xlink">
    <!-- Generator: Sketch 51.2 (57519) - http://www.bohemiancoding.com/sketch -->
    <title>easy_reorder</title>
    <desc>Created with Sketch.</desc>
    <defs>
        <polygon id="path-1" points="0 0 23.2417582 0 23.2417582 30.989011 0 30.989011"></polygon>
    </defs>
    <g id="easy_reorder" stroke="none" stroke-width="1" fill="none" fill-rule="evenodd">
        <g id="Group">
            <polygon id="Page-1" fill="#DC062B" points="29.3133433 5.1978022 33.5885106 9.51752374 24.0879121 9.51752374 24.0879121 11.0398506 33.5885106 11.0398506 29.3133433 15.3592321 31.4509269 15.3592321 36.4835165 10.2841289 31.4509269 5.1978022"></polygon>
            <polygon id="Page-1-Copy-2" fill="#DC062B" transform="translate(27.186813, 21.124671) scale(-1, 1) translate(-27.186813, -21.124671) " points="26.2144422 16.043956 30.4896095 20.3636776 20.989011 20.3636776 20.989011 21.8860045 30.4896095 21.8860045 26.2144422 26.2053859 28.3520258 26.2053859 33.3846154 21.1302828 28.3520258 16.043956"></polygon>
            <g id="Page-1" transform="translate(0.846154, 0.549451)">
                <mask id="mask-2" fill="white">
                    <use xlink:href="#path-1"></use>
                </mask>
                <g id="Clip-2"></g>
                <path d="M8.29229115,8.45960148 C7.32614933,8.45960148 6.53715737,9.25337318 6.53715737,10.2369954 C6.53715737,11.2206177 7.32614933,12.0143894 8.29229115,12.0143894 C9.25822841,12.0143894 10.0472204,11.2206177 10.0472204,10.2369954 C10.0472204,9.25337318 9.25822841,8.45960148 8.29229115,8.45960148 Z M8.29229115,10.9018815 C7.93165003,10.9018815 7.63237722,10.6033988 7.63237722,10.2369954 C7.63237722,9.87059206 7.92489951,9.57210935 8.29229115,9.57210935 C8.65272772,9.57210935 8.95220509,9.87059206 8.95220509,10.2369954 C8.95220509,10.6033988 8.65272772,10.9018815 8.29229115,10.9018815 Z M10.5846022,12.8216634 L10.4418186,12.8216634 C10.1425458,12.8216634 9.89073117,13.0726835 9.89073117,13.3779173 C9.89073117,13.6831512 10.1357953,13.9341713 10.4418186,13.9341713 L10.5846022,13.9341713 C10.8840796,13.9341713 11.1356897,13.6831512 11.1356897,13.3779173 C11.1356897,13.0726835 10.8908301,12.8216634 10.5846022,12.8216634 Z M16.6662022,6.67545637 L16.8089858,6.67545637 C17.1082586,6.67545637 17.3598687,6.42443629 17.3598687,6.11920243 C17.3598687,5.81376399 17.1150091,5.56274392 16.8089858,5.56274392 L16.6662022,5.56274392 C16.3669294,5.56274392 16.1151147,5.81376399 16.1151147,6.11920243 C16.1151147,6.42443629 16.3599743,6.67545637 16.6662022,6.67545637 Z M14.59809,20.1415478 C14.59809,20.4467817 14.8429496,20.6975972 15.1491774,20.6975972 L15.2919611,20.6975972 C15.5914384,20.6975972 15.8430485,20.4467817 15.8430485,20.1415478 C15.8430485,19.8361094 15.5981889,19.5850893 15.2919611,19.5850893 L15.1422224,19.5850893 C14.8429496,19.592045 14.59809,19.8361094 14.59809,20.1415478 Z M5.88419851,12.8216634 L5.74121034,12.8216634 C5.44193753,12.8216634 5.19032744,13.0726835 5.19032744,13.3779173 C5.19032744,13.6831512 5.43518701,13.9341713 5.74121034,13.9341713 L5.88419851,13.9341713 C6.18347132,13.9341713 6.43508141,13.6831512 6.43508141,13.3779173 C6.42833089,13.0726835 6.18347132,12.8216634 5.88419851,12.8216634 Z M13.9518816,5.56274392 L13.809098,5.56274392 C13.5098252,5.56274392 13.2580106,5.81376399 13.2580106,6.11920243 C13.2580106,6.42443629 13.5030747,6.67545637 13.809098,6.67545637 L13.9518816,6.67545637 C14.2511544,6.67545637 14.5027645,6.42443629 14.5027645,6.11920243 C14.5027645,5.81376399 14.2581095,5.56274392 13.9518816,5.56274392 Z M5.2924034,17.2991086 L5.14286928,17.2991086 C4.8433919,17.2991086 4.59157726,17.5501287 4.59157726,17.8553626 C4.59157726,18.1605964 4.83643683,18.4116165 5.14286928,18.4116165 L5.28565289,18.4116165 C5.5849257,18.4116165 5.83653579,18.1605964 5.83653579,17.8553626 C5.83653579,17.543173 5.59167621,17.2991086 5.2924034,17.2991086 Z M16.9450189,17.251646 C16.9313133,17.231188 16.9178122,17.2107299 16.9043112,17.1972276 L16.2511478,16.0507594 C16.2511478,16.0507594 21.581395,6.211059 23.1153983,2.21683252 C23.1221488,2.19882945 22.9789561,2.08958355 22.9652505,2.07587667 C22.9515449,2.06912552 22.9312933,2.05562322 22.9108372,2.04887207 C20.6659843,0.746309066 18.0741958,0 15.3056666,0 C12.5369329,0 9.94514441,0.746309066 7.70029148,2.04887207 C7.68003994,2.05562322 7.66633435,2.06237437 7.64608281,2.07587667 C7.6256267,2.08958355 7.61192111,2.0963347 7.59821552,2.10983701 C3.05430099,4.80293255 0,9.78937366 0,15.4945055 C0,21.1928862 3.06125606,26.1858739 7.6051706,28.879174 C7.61887619,28.8926763 7.63933229,28.8994274 7.65283332,28.9131343 C7.66633435,28.9198855 7.68679045,28.9333878 7.70724656,28.9401389 C9.95189492,30.2429065 12.5436834,30.989011 15.3124172,30.989011 C17.992576,30.989011 20.6318226,30.2766623 22.9447944,28.9333878 C22.9652505,28.9198855 22.9789561,28.9131343 22.9994122,28.8994274 C23.2375212,28.7365815 23.312186,28.4178453 23.1694024,28.1600741 L16.9450189,17.251646 Z M15.3056666,29.8765031 C12.911075,29.8765031 10.6594716,29.272582 8.6801389,28.2144925 L9.25127334,27.2171633 C11.1084831,28.2007856 13.1968468,28.716328 15.3056666,28.716328 C16.863399,28.716328 18.3871742,28.4448499 19.8291251,27.9023029 C20.1151014,27.7936707 20.257885,27.4749346 20.1558091,27.1899541 C20.0537331,26.9049737 19.7342087,26.7558347 19.4549829,26.8642623 C18.1286091,27.3595512 16.734321,27.6105713 15.3056666,27.6105713 C13.3872931,27.6105713 11.4893758,27.1424915 9.79561028,26.2537945 L14.6185461,17.8011488 C14.7680802,17.5364218 14.6799144,17.1972276 14.4213492,17.0411328 C14.1560336,16.8852426 13.8225991,16.9801679 13.6730649,17.2446903 L7.73424862,27.6512828 C3.89095567,25.1955005 1.28566618,20.9283638 1.10197036,16.0372571 L2.25160344,16.0372571 C2.40113757,19.7276818 4.06790098,23.1873399 6.87734239,25.5889084 C7.10870094,25.7855101 7.45543191,25.7587101 7.64608281,25.5209878 C7.84327965,25.2906303 7.80932252,24.9377292 7.57796398,24.7409229 C5.02033721,22.549663 3.49656197,19.4019899 3.34007277,16.0372571 L12.9791939,16.0372571 C13.2784667,16.0372571 13.5300768,15.7862371 13.5300768,15.4810032 C13.5300768,15.1757693 13.2852172,14.9247493 12.9791939,14.9247493 L1.10197036,14.9247493 C1.28566618,10.0401892 3.89095567,5.77325708 7.73424862,3.31072358 L8.30579218,4.30784814 C5.12895913,6.34301332 2.99313724,9.62652771 2.40113757,13.3914196 C2.3536794,13.6968581 2.55783133,13.9748828 2.85710414,14.0223454 C3.15637695,14.069808 3.43519366,13.8664552 3.48285638,13.5612213 C4.02023825,10.1283633 5.96581837,7.13678502 8.85012913,5.27121694 L13.6730649,13.7171115 C13.8225991,13.9816339 14.1560336,14.069808 14.4213492,13.920669 C14.6799144,13.7645742 14.7750353,13.42538 14.6185461,13.1608576 L8.6801389,2.7747231 C10.6594716,1.71642902 12.9178255,1.11250787 15.3056666,1.11250787 C17.7000537,1.11250787 19.9516571,1.71642902 21.9311944,2.7747231 L21.3598554,3.77184766 C19.5028502,2.7882254 17.4144865,2.27268295 15.3056666,2.27268295 C13.7479343,2.27268295 12.2309095,2.54395648 10.7820037,3.08670811 C10.4962319,3.19534027 10.3534483,3.51407643 10.4553197,3.79905684 C10.5573956,4.08403725 10.8773291,4.23317631 11.1561458,4.12474874 C12.4825196,3.62945974 13.8772169,3.37843967 15.2989161,3.37843967 C17.2238356,3.37843967 19.1150025,3.84651948 20.8089725,4.73521646 L15.3056666,14.9315004 C15.1082652,14.9315004 14.9315245,15.039928 14.8294485,15.2095251 C14.7341231,15.3791222 14.7341231,15.5894308 14.8294485,15.765779 L21.9107383,28.2279948 C19.8837429,29.3065423 17.6116833,29.8765031 15.3056666,29.8765031 Z M13.8430552,22.834848 C12.8771179,22.834848 12.0881259,23.6284151 12.0881259,24.6120373 C12.0881259,25.5889084 12.8771179,26.3896359 13.8430552,26.3896359 C14.8089924,26.3896359 15.5981889,25.5958642 15.5981889,24.6120373 C15.5981889,23.6284151 14.8159475,22.834848 13.8430552,22.834848 Z M13.8430552,25.2769234 C13.4826186,25.2769234 13.1831412,24.9784407 13.1831412,24.6120373 C13.1831412,24.245634 13.4758681,23.9471512 13.8430552,23.9471512 C14.2034917,23.9471512 14.5027645,24.245634 14.5027645,24.6120373 C14.5027645,24.9784407 14.2104468,25.2769234 13.8430552,25.2769234 Z M17.2852039,24.91052 L17.4279875,24.91052 C17.7272603,24.91052 17.979075,24.6597046 17.979075,24.3542661 C17.979075,24.0490322 17.7340108,23.7980122 17.4279875,23.7980122 L17.2852039,23.7980122 C16.9857265,23.7980122 16.734321,24.0490322 16.734321,24.3542661 C16.734321,24.6664557 16.978976,24.91052 17.2852039,24.91052 Z M15.2375478,9.70099496 L15.3803314,9.70099496 C15.6796042,9.70099496 15.9314189,9.44997488 15.9314189,9.14474102 C15.9314189,8.83950716 15.6865593,8.58848709 15.3803314,8.58848709 L15.2375478,8.58848709 C14.938275,8.58848709 14.6866649,8.83950716 14.6866649,9.14474102 C14.6866649,9.45693062 14.9315245,9.70099496 15.2375478,9.70099496 Z M8.10859533,21.84427 L7.96560716,21.84427 C7.66633435,21.84427 7.41472426,22.0950855 7.41472426,22.4005239 C7.41472426,22.7057578 7.65958383,22.9567778 7.96560716,22.9567778 L8.10859533,22.9567778 C8.40786814,22.9567778 8.65968279,22.7057578 8.65968279,22.4005239 C8.65968279,22.0883343 8.40786814,21.84427 8.10859533,21.84427 Z M9.12894583,17.0006259 C8.16300857,17.0006259 7.37401661,17.7941931 7.37401661,18.7780199 C7.37401661,19.754891 8.16300857,20.5552093 9.12894583,20.5552093 C10.0950877,20.5552093 10.8840796,19.7616421 10.8840796,18.7780199 C10.8840796,17.8011488 10.0950877,17.0006259 9.12894583,17.0006259 Z M9.12894583,19.4427014 C8.76830471,19.4427014 8.4690319,19.1442187 8.4690319,18.7780199 C8.4690319,18.4116165 8.76155419,18.1131338 9.12894583,18.1131338 C9.48958696,18.1131338 9.78865521,18.4116165 9.78865521,18.7780199 C9.78190469,19.1442187 9.48958696,19.4427014 9.12894583,19.4427014 Z" id="Fill-1" fill="#0073AA" mask="url(#mask-2)"></path>
            </g>
        </g>
    </g>
</svg>